<svg version="1.1" id="Layer_1" xmlns="http://www.w3.org/2000/svg" xmlns:xlink="http://www.w3.org/1999/xlink" x="0px" y="0px"
	 width="100%" viewBox="0 0 998 116" enable-background="new 0 0 998 116" xml:space="preserve">
<path fill="#FDFDFD" opacity="1.000000" stroke="none" 
	d="
M750.000000,117.000000 
	C500.055969,117.000000 250.611954,117.000000 1.083964,117.000000 
	C1.083964,78.398148 1.083964,39.796051 1.083964,1.096976 
	C333.666656,1.096976 666.333313,1.096976 998.971985,1.096976 
	C998.971985,39.721363 998.971985,78.360695 998.971985,117.000000 
	C916.129333,117.000000 833.314636,117.000000 750.000000,117.000000 
M981.904968,89.680260 
	C984.739624,83.019569 984.952942,76.603004 979.935425,70.024841 
	C976.670410,68.327919 973.405396,66.630989 969.863159,64.230431 
	C965.548584,63.146187 961.201111,62.175575 956.931519,60.936268 
	C954.247559,60.157215 949.917786,60.231579 950.667908,56.305534 
	C950.981995,54.661900 955.242737,53.694908 957.789307,52.608055 
	C958.451477,52.325432 959.460388,52.612366 960.232544,52.870003 
	C965.126160,54.502811 969.998108,56.200832 975.185120,57.983192 
	C977.142517,54.470692 979.293457,50.610802 981.553284,46.555588 
	C970.086365,39.426849 958.436829,36.600658 945.762024,40.994804 
	C936.988708,44.036385 932.517944,50.674873 932.820740,59.567783 
	C933.088867,67.443985 937.342163,72.479347 946.512695,75.100914 
	C952.239319,76.737961 958.111267,77.866913 964.241333,79.854668 
	C964.766174,81.282036 966.105591,83.558426 965.665833,83.980324 
	C964.246643,85.341965 962.233582,86.673813 960.340515,86.850563 
	C952.050049,87.624649 945.019348,83.877731 938.000549,79.459648 
	C935.413391,83.852562 933.009033,87.935150 930.452576,92.276001 
	C941.104004,99.779251 952.383972,102.392105 964.726379,100.352356 
	C971.613586,99.214172 977.876343,96.892036 981.904968,89.680260 
M580.314758,78.290512 
	C572.241760,71.357346 570.081116,62.533768 572.673828,52.564816 
	C574.969849,43.736683 580.826294,38.105080 589.902527,36.570934 
	C599.614258,34.929371 606.568115,39.390015 611.503967,47.745750 
	C617.302856,44.996498 622.969421,42.310009 628.629395,39.626602 
	C621.433350,22.883295 603.291199,14.799600 582.870239,19.088100 
	C563.864807,23.079332 551.018982,39.079624 550.885681,58.927059 
	C550.747437,79.496696 563.324463,95.652054 582.759155,99.869133 
	C602.979736,104.256729 621.157654,96.232018 628.642700,79.407745 
	C622.996399,76.714325 617.341919,74.017029 611.712402,71.331612 
	C602.242615,83.839989 592.932373,86.051872 580.314758,78.290512 
M61.501278,66.997101 
	C68.117691,66.997101 74.734100,66.997101 81.086380,66.997101 
	C81.086380,60.893284 81.086380,55.326050 81.086380,49.343540 
	C68.587120,49.343540 56.499382,49.343540 44.424038,49.343540 
	C44.424038,44.800327 44.424038,40.706341 44.424038,36.173550 
	C57.079182,36.173550 69.479660,36.173550 82.082581,36.173550 
	C82.082581,30.315912 82.082581,24.902813 82.082581,19.335777 
	C62.662571,19.335777 43.307220,19.335777 23.863323,19.335777 
	C23.863323,32.815826 23.863323,45.963169 23.863323,59.110512 
	C23.863323,72.342072 23.863323,85.573639 23.863323,98.779022 
	C30.938768,98.779022 37.367519,98.779022 44.215729,98.779022 
	C44.215729,88.174179 44.215729,77.780190 44.215729,66.997101 
	C49.922211,66.997101 55.212265,66.997101 61.501278,66.997101 
M637.591003,72.499649 
	C637.591003,81.264191 637.591003,90.028732 637.591003,98.670616 
	C643.977051,98.670616 649.723328,98.670616 655.759888,98.670616 
	C655.759888,87.197685 655.723511,76.056709 655.800964,64.916519 
	C655.812012,63.330254 655.957214,61.483196 656.761169,60.213154 
	C659.186768,56.381371 665.888916,54.544514 670.663635,55.799652 
	C676.108398,57.230907 676.639893,61.478821 676.751709,65.954910 
	C676.864075,70.451897 676.781067,74.953781 676.781799,79.453522 
	C676.782837,85.877426 676.782104,92.301323 676.782104,98.697678 
	C683.122559,98.697678 688.864075,98.697678 694.915222,98.697678 
	C694.915222,85.256630 694.514160,72.105560 695.013428,58.988762 
	C695.687500,41.279259 682.010071,36.886387 670.346313,39.705185 
	C665.383362,40.904575 660.784729,43.611473 655.639526,45.794987 
	C655.639526,37.049683 655.639526,28.148844 655.639526,19.280474 
	C649.390808,19.280474 643.647461,19.280474 637.591064,19.280474 
	C637.591064,36.876850 637.591064,54.188244 637.591003,72.499649 
M718.539795,96.076653 
	C732.094360,103.827026 748.601562,102.417114 758.831543,92.635345 
	C768.329590,83.553436 770.829285,67.359085 764.615601,55.162327 
	C758.858154,43.860878 746.728699,37.711109 732.826111,39.044655 
	C719.808716,40.293285 709.678406,48.516788 706.273254,60.599453 
	C702.458679,74.135201 706.786682,87.185509 718.539795,96.076653 
M246.180893,50.509983 
	C243.677917,47.915813 241.580444,44.653049 238.600357,42.845528 
	C226.931244,35.767826 206.356506,38.480816 195.871979,48.291916 
	C197.951050,52.038929 200.078430,55.873009 201.590286,58.597767 
	C207.445389,56.768295 212.489136,54.400841 217.751236,53.719162 
	C227.560623,52.448414 232.818588,59.369076 229.827652,67.597687 
	C225.300888,66.110512 220.905975,63.968559 216.298523,63.307095 
	C208.216431,62.146801 200.324402,63.471302 195.505859,70.953964 
	C191.205322,77.632225 191.389847,85.069405 195.458389,91.831627 
	C199.841446,99.116623 207.047760,102.015137 215.163605,100.749886 
	C219.886597,100.013580 224.288757,97.225899 228.840759,95.374756 
	C229.237183,95.213547 229.674744,95.153473 230.189072,95.021896 
	C230.472260,96.422760 230.723175,97.663986 230.922562,98.650269 
	C236.980453,98.650269 242.718842,98.650269 248.686005,98.650269 
	C248.686005,85.489922 248.814423,72.682350 248.588409,59.881035 
	C248.537048,56.972439 247.257523,54.085526 246.180893,50.509983 
M427.436127,45.901127 
	C425.452606,47.039368 424.492523,48.280678 426.068848,50.644852 
	C427.989594,53.525593 429.543030,56.651257 430.666565,58.632683 
	C436.352600,56.821587 441.387665,54.412296 446.649567,53.715187 
	C456.568237,52.401138 461.517517,58.799316 458.898132,67.672775 
	C454.426453,66.175591 450.048767,64.007957 445.450653,63.325302 
	C437.377991,62.126801 429.486572,63.406124 424.602325,70.844147 
	C420.232910,77.498077 420.393555,84.924950 424.413025,91.710930 
	C428.742950,99.021095 435.916779,101.984177 444.044464,100.760315 
	C448.774292,100.048111 453.196747,97.296913 457.759186,95.467316 
	C458.174011,95.300972 458.601044,95.165100 459.166473,94.963768 
	C459.445770,96.368988 459.693665,97.616234 459.905823,98.683716 
	C465.945221,98.683716 471.690338,98.683716 477.671387,98.683716 
	C477.671387,85.398560 478.055481,72.419685 477.552155,59.475319 
	C477.135590,48.763172 470.633575,42.075531 460.124451,39.928406 
	C448.696533,37.593555 437.994110,39.404266 427.436127,45.901127 
M292.392517,55.196095 
	C299.872833,56.723999 301.583435,58.561638 301.688568,66.234375 
	C301.836182,77.008034 301.725861,87.785225 301.725861,98.648483 
	C307.952057,98.648483 313.819031,98.648483 319.886475,98.648483 
	C319.886475,84.822731 319.922516,71.358200 319.875946,57.893948 
	C319.832825,45.428295 313.157593,38.970806 300.594482,38.956909 
	C293.146545,38.948673 286.847961,41.911312 280.852905,46.733521 
	C280.636292,44.537663 280.478943,42.942806 280.307098,41.200760 
	C274.305969,41.200760 268.559692,41.200760 262.573364,41.200760 
	C262.573364,60.463795 262.573364,79.516060 262.573364,98.789536 
	C268.549072,98.789536 274.300964,98.789536 280.003754,98.789536 
	C280.200378,98.377274 280.462708,98.083084 280.463867,97.787880 
	C280.506012,86.970604 280.738647,76.147324 280.441437,65.338722 
	C280.319366,60.898426 282.305328,58.460541 285.904358,56.871155 
	C287.702576,56.077053 289.699921,55.733994 292.392517,55.196095 
M918.940918,95.357231 
	C920.599731,94.380325 922.073181,93.518898 920.317627,91.213005 
	C918.119385,88.325699 916.220398,85.210518 914.222473,82.238602 
	C898.771790,89.549065 887.325989,87.055161 885.478333,75.803589 
	C898.962708,75.803589 912.385620,75.803589 925.819885,75.803589 
	C925.819885,72.276932 926.135315,69.107948 925.766968,66.020561 
	C923.851624,49.968098 912.602539,39.285339 897.542664,38.996902 
	C881.391357,38.687565 868.774109,49.064911 866.282959,64.707291 
	C863.681946,81.039497 871.931763,95.062775 886.965210,99.439766 
	C897.864563,102.613152 908.334778,101.040024 918.940918,95.357231 
M180.183304,99.004021 
	C181.023544,97.796730 182.577194,96.599350 182.594131,95.380623 
	C182.772125,82.563499 182.796677,69.742104 182.676956,56.923637 
	C182.573257,45.821758 176.019028,39.384300 164.919586,38.968956 
	C156.932068,38.670063 150.074417,41.448345 143.563828,46.926456 
	C143.361938,44.568363 143.216919,42.874485 143.083206,41.312485 
	C136.943192,41.312485 131.201752,41.312485 125.492966,41.312485 
	C125.492966,60.677410 125.492966,79.722763 125.492966,98.742744 
	C131.584335,98.742744 137.349930,98.742744 143.306381,98.742744 
	C143.306381,87.176880 143.283875,75.873886 143.316742,64.571053 
	C143.331207,59.601669 147.835052,55.768131 154.150970,55.233929 
	C159.733459,54.761761 163.928299,57.719200 164.195663,63.176994 
	C164.618774,71.813972 164.461182,80.479721 164.531967,89.133446 
	C164.558441,92.369186 164.536255,95.605331 164.536255,99.004997 
	C169.926147,99.004997 174.581482,99.004997 180.183304,99.004021 
M845.833618,57.615620 
	C847.058960,58.621639 848.284241,59.627659 849.716309,60.803410 
	C853.574219,56.867908 857.226990,53.141739 860.856201,49.439529 
	C850.368347,36.324711 827.857605,35.344040 815.095581,47.236084 
	C802.628601,58.853153 802.762512,81.549118 815.365417,92.979988 
	C828.388794,104.792099 850.997009,103.545143 860.462769,90.963623 
	C856.903992,86.909271 853.404724,82.922661 851.132019,80.333481 
	C845.396667,82.005028 840.987366,84.276779 836.549683,84.333694 
	C831.002380,84.404823 826.961731,80.664330 825.473083,75.130669 
	C823.828613,69.017838 824.273132,63.043510 829.422119,58.619770 
	C834.179993,54.531925 839.620605,54.244572 845.833618,57.615620 
M372.143372,59.739895 
	C372.966492,59.738064 374.135864,60.090778 374.558105,59.678436 
	C377.997162,56.320248 381.296478,52.818985 384.657135,49.341846 
	C377.333344,39.698174 363.129242,36.261280 349.488007,40.963737 
	C336.842621,45.322903 329.496765,56.700050 329.867218,71.352287 
	C330.211487,84.968094 338.376129,95.822319 351.106873,99.588585 
	C364.392517,103.519020 378.324188,99.655067 384.700470,90.254089 
	C382.856293,88.360176 381.038239,86.428833 379.148346,84.570534 
	C377.291595,82.744781 375.361786,80.993271 373.501678,79.244560 
	C365.199005,86.075645 358.057770,86.450294 352.446472,80.565063 
	C347.367584,75.238220 347.340546,64.893463 352.391388,59.484943 
	C357.520081,53.993076 364.831055,53.863609 372.143372,59.739895 
M491.761169,65.499901 
	C491.761169,76.579910 491.761169,87.659927 491.761169,98.699829 
	C498.112793,98.699829 503.854797,98.699829 509.570435,98.699829 
	C509.570435,72.011360 509.570435,45.628723 509.570435,19.282772 
	C503.477203,19.282772 497.716766,19.282772 491.761169,19.282772 
	C491.761169,34.545723 491.761169,49.522808 491.761169,65.499901 
M107.427490,40.994694 
	C102.808510,40.994694 98.189529,40.994694 93.450157,40.994694 
	C93.450157,60.554340 93.450157,79.612419 93.450157,98.770645 
	C99.496239,98.770645 105.258240,98.770645 111.301315,98.770645 
	C111.301315,80.240044 111.341850,61.941948 111.178635,43.645668 
	C111.170677,42.753990 109.376350,41.878246 107.427490,40.994694 
M777.793152,85.493858 
	C777.793152,89.914017 777.793152,94.334175 777.793152,98.695038 
	C784.165344,98.695038 789.904114,98.695038 795.600647,98.695038 
	C795.600647,79.338219 795.600647,60.292953 795.600647,41.289696 
	C789.510803,41.289696 783.755188,41.289696 777.793152,41.289696 
	C777.793152,55.888039 777.793152,70.192253 777.793152,85.493858 
M393.751465,64.499939 
	C393.751465,75.912094 393.751465,87.324249 393.751465,98.698135 
	C400.092865,98.698135 405.831573,98.698135 411.553894,98.698135 
	C411.553894,79.342194 411.553894,60.294056 411.553894,41.280346 
	C405.464447,41.280346 399.705444,41.280346 393.751434,41.280346 
	C393.751434,48.876236 393.751434,56.188091 393.751465,64.499939 
M794.947388,16.730860 
	C791.919067,13.191740 787.769287,11.578636 783.796204,13.557457 
	C780.880188,15.009817 778.130676,18.166538 776.854431,21.212160 
	C775.053589,25.509584 777.711975,30.491205 781.657776,32.690697 
	C785.752075,34.972988 790.766907,34.340683 794.130920,31.118031 
	C797.690491,27.708061 798.138611,22.935301 794.947388,16.730860 
M409.198395,31.873198 
	C413.117462,28.595646 414.155518,24.385628 412.546539,19.723272 
	C411.201965,15.827155 408.236267,13.433894 404.023834,12.993367 
	C399.177795,12.486577 395.472412,14.508316 393.413971,18.839476 
	C391.375488,23.128546 392.000366,27.331511 395.312653,30.871122 
	C398.742371,34.536201 402.827545,34.913982 409.198395,31.873198 
M97.774529,13.916100 
	C90.646324,16.952068 89.816383,27.233595 95.802109,31.819725 
	C99.683151,34.793293 104.911743,34.791077 108.746529,31.788181 
	C112.600220,28.770493 113.840790,23.141998 111.633499,18.689920 
	C109.268806,13.920364 104.845154,12.214649 97.774529,13.916100 
z"/>
<path fill="#050505" opacity="1.000000" stroke="none" 
	d="
M580.601135,78.518250 
	C592.932373,86.051872 602.242615,83.839989 611.712402,71.331612 
	C617.341919,74.017029 622.996399,76.714325 628.642700,79.407745 
	C621.157654,96.232018 602.979736,104.256729 582.759155,99.869133 
	C563.324463,95.652054 550.747437,79.496696 550.885681,58.927059 
	C551.018982,39.079624 563.864807,23.079332 582.870239,19.088100 
	C603.291199,14.799600 621.433350,22.883295 628.629395,39.626602 
	C622.969421,42.310009 617.302856,44.996498 611.503967,47.745750 
	C606.568115,39.390015 599.614258,34.929371 589.902527,36.570934 
	C580.826294,38.105080 574.969849,43.736683 572.673828,52.564816 
	C570.081116,62.533768 572.241760,71.357346 580.601135,78.518250 
z"/>
<path fill="#010101" opacity="1.000000" stroke="none" 
	d="
M61.001801,66.997101 
	C55.212265,66.997101 49.922211,66.997101 44.215729,66.997101 
	C44.215729,77.780190 44.215729,88.174179 44.215729,98.779022 
	C37.367519,98.779022 30.938768,98.779022 23.863323,98.779022 
	C23.863323,85.573639 23.863323,72.342072 23.863323,59.110512 
	C23.863323,45.963169 23.863323,32.815826 23.863323,19.335777 
	C43.307220,19.335777 62.662571,19.335777 82.082581,19.335777 
	C82.082581,24.902813 82.082581,30.315912 82.082581,36.173550 
	C69.479660,36.173550 57.079182,36.173550 44.424038,36.173550 
	C44.424038,40.706341 44.424038,44.800327 44.424038,49.343540 
	C56.499382,49.343540 68.587120,49.343540 81.086380,49.343540 
	C81.086380,55.326050 81.086380,60.893284 81.086380,66.997101 
	C74.734100,66.997101 68.117691,66.997101 61.001801,66.997101 
z"/>
<path fill="#050505" opacity="1.000000" stroke="none" 
	d="
M637.591064,71.999641 
	C637.591064,54.188244 637.591064,36.876850 637.591064,19.280474 
	C643.647461,19.280474 649.390808,19.280474 655.639526,19.280474 
	C655.639526,28.148844 655.639526,37.049683 655.639526,45.794987 
	C660.784729,43.611473 665.383362,40.904575 670.346313,39.705185 
	C682.010071,36.886387 695.687500,41.279259 695.013428,58.988762 
	C694.514160,72.105560 694.915222,85.256630 694.915222,98.697678 
	C688.864075,98.697678 683.122559,98.697678 676.782104,98.697678 
	C676.782104,92.301323 676.782837,85.877426 676.781799,79.453522 
	C676.781067,74.953781 676.864075,70.451897 676.751709,65.954910 
	C676.639893,61.478821 676.108398,57.230907 670.663635,55.799652 
	C665.888916,54.544514 659.186768,56.381371 656.761169,60.213154 
	C655.957214,61.483196 655.812012,63.330254 655.800964,64.916519 
	C655.723511,76.056709 655.759888,87.197685 655.759888,98.670616 
	C649.723328,98.670616 643.977051,98.670616 637.591003,98.670616 
	C637.591003,90.028732 637.591003,81.264191 637.591064,71.999641 
z"/>
<path fill="#050505" opacity="1.000000" stroke="none" 
	d="
M718.226440,95.887009 
	C706.786682,87.185509 702.458679,74.135201 706.273254,60.599453 
	C709.678406,48.516788 719.808716,40.293285 732.826111,39.044655 
	C746.728699,37.711109 758.858154,43.860878 764.615601,55.162327 
	C770.829285,67.359085 768.329590,83.553436 758.831543,92.635345 
	C748.601562,102.417114 732.094360,103.827026 718.226440,95.887009 
M724.352539,65.332092 
	C724.933167,69.841904 724.686951,74.677422 726.302795,78.779442 
	C728.343628,83.960419 734.313293,85.746346 739.837952,84.146500 
	C746.013062,82.358292 749.562378,76.541756 749.154541,68.878716 
	C748.763489,61.531029 744.719666,56.570763 738.162537,55.395370 
	C732.292908,54.343220 727.346863,57.691322 724.352539,65.332092 
z"/>
<path fill="#060606" opacity="1.000000" stroke="none" 
	d="
M246.362091,50.849312 
	C247.257523,54.085526 248.537048,56.972439 248.588409,59.881035 
	C248.814423,72.682350 248.686005,85.489922 248.686005,98.650269 
	C242.718842,98.650269 236.980453,98.650269 230.922562,98.650269 
	C230.723175,97.663986 230.472260,96.422760 230.189072,95.021896 
	C229.674744,95.153473 229.237183,95.213547 228.840759,95.374756 
	C224.288757,97.225899 219.886597,100.013580 215.163605,100.749886 
	C207.047760,102.015137 199.841446,99.116623 195.458389,91.831627 
	C191.389847,85.069405 191.205322,77.632225 195.505859,70.953964 
	C200.324402,63.471302 208.216431,62.146801 216.298523,63.307095 
	C220.905975,63.968559 225.300888,66.110512 229.827652,67.597687 
	C232.818588,59.369076 227.560623,52.448414 217.751236,53.719162 
	C212.489136,54.400841 207.445389,56.768295 201.590286,58.597767 
	C200.078430,55.873009 197.951050,52.038929 195.871979,48.291916 
	C206.356506,38.480816 226.931244,35.767826 238.600357,42.845528 
	C241.580444,44.653049 243.677917,47.915813 246.362091,50.849312 
M217.909866,88.089119 
	C221.137039,87.558884 224.633347,87.637718 227.529404,86.358109 
	C232.067780,84.352844 232.027649,78.773743 227.522385,76.716072 
	C224.919128,75.527107 221.793289,75.161018 218.879501,75.053749 
	C215.148285,74.916389 211.758591,76.263031 210.994522,80.430801 
	C210.158112,84.993187 212.996811,87.104790 217.909866,88.089119 
z"/>
<path fill="#060606" opacity="1.000000" stroke="none" 
	d="
M427.727661,45.682899 
	C437.994110,39.404266 448.696533,37.593555 460.124451,39.928406 
	C470.633575,42.075531 477.135590,48.763172 477.552155,59.475319 
	C478.055481,72.419685 477.671387,85.398560 477.671387,98.683716 
	C471.690338,98.683716 465.945221,98.683716 459.905823,98.683716 
	C459.693665,97.616234 459.445770,96.368988 459.166473,94.963768 
	C458.601044,95.165100 458.174011,95.300972 457.759186,95.467316 
	C453.196747,97.296913 448.774292,100.048111 444.044464,100.760315 
	C435.916779,101.984177 428.742950,99.021095 424.413025,91.710930 
	C420.393555,84.924950 420.232910,77.498077 424.602325,70.844147 
	C429.486572,63.406124 437.377991,62.126801 445.450653,63.325302 
	C450.048767,64.007957 454.426453,66.175591 458.898132,67.672775 
	C461.517517,58.799316 456.568237,52.401138 446.649567,53.715187 
	C441.387665,54.412296 436.352600,56.821587 430.666565,58.632683 
	C429.543030,56.651257 427.989594,53.525593 426.068848,50.644852 
	C424.492523,48.280678 425.452606,47.039368 427.727661,45.682899 
M447.767365,88.181274 
	C450.673431,87.654808 453.803650,87.614014 456.399689,86.415871 
	C457.906433,85.720482 459.380646,83.153740 459.356384,81.450645 
	C459.332336,79.762070 457.773468,77.331337 456.235840,76.603661 
	C453.803009,75.452316 450.835449,75.115036 448.077881,75.041206 
	C444.144043,74.935898 440.533813,76.279411 439.970734,80.750084 
	C439.359100,85.606903 442.626740,87.496490 447.767365,88.181274 
z"/>
<path fill="#080808" opacity="1.000000" stroke="none" 
	d="
M291.999878,55.191505 
	C289.699921,55.733994 287.702576,56.077053 285.904358,56.871155 
	C282.305328,58.460541 280.319366,60.898426 280.441437,65.338722 
	C280.738647,76.147324 280.506012,86.970604 280.463867,97.787880 
	C280.462708,98.083084 280.200378,98.377274 280.003754,98.789536 
	C274.300964,98.789536 268.549072,98.789536 262.573364,98.789536 
	C262.573364,79.516060 262.573364,60.463795 262.573364,41.200760 
	C268.559692,41.200760 274.305969,41.200760 280.307098,41.200760 
	C280.478943,42.942806 280.636292,44.537663 280.852905,46.733521 
	C286.847961,41.911312 293.146545,38.948673 300.594482,38.956909 
	C313.157593,38.970806 319.832825,45.428295 319.875946,57.893948 
	C319.922516,71.358200 319.886475,84.822731 319.886475,98.648483 
	C313.819031,98.648483 307.952057,98.648483 301.725861,98.648483 
	C301.725861,87.785225 301.836182,77.008034 301.688568,66.234375 
	C301.583435,58.561638 299.872833,56.723999 291.999878,55.191505 
z"/>
<path fill="#050505" opacity="1.000000" stroke="none" 
	d="
M918.630371,95.579865 
	C908.334778,101.040024 897.864563,102.613152 886.965210,99.439766 
	C871.931763,95.062775 863.681946,81.039497 866.282959,64.707291 
	C868.774109,49.064911 881.391357,38.687565 897.542664,38.996902 
	C912.602539,39.285339 923.851624,49.968098 925.766968,66.020561 
	C926.135315,69.107948 925.819885,72.276932 925.819885,75.803589 
	C912.385620,75.803589 898.962708,75.803589 885.478333,75.803589 
	C887.325989,87.055161 898.771790,89.549065 914.222473,82.238602 
	C916.220398,85.210518 918.119385,88.325699 920.317627,91.213005 
	C922.073181,93.518898 920.599731,94.380325 918.630371,95.579865 
M900.456360,53.831642 
	C891.898376,51.931671 885.953308,55.841282 885.341675,63.645065 
	C893.024719,63.645065 900.713318,63.645065 908.562622,63.645065 
	C907.797607,58.798328 905.504578,55.629025 900.456360,53.831642 
z"/>
<path fill="#050505" opacity="1.000000" stroke="none" 
	d="
M179.710052,99.004509 
	C174.581482,99.004997 169.926147,99.004997 164.536255,99.004997 
	C164.536255,95.605331 164.558441,92.369186 164.531967,89.133446 
	C164.461182,80.479721 164.618774,71.813972 164.195663,63.176994 
	C163.928299,57.719200 159.733459,54.761761 154.150970,55.233929 
	C147.835052,55.768131 143.331207,59.601669 143.316742,64.571053 
	C143.283875,75.873886 143.306381,87.176880 143.306381,98.742744 
	C137.349930,98.742744 131.584335,98.742744 125.492966,98.742744 
	C125.492966,79.722763 125.492966,60.677410 125.492966,41.312485 
	C131.201752,41.312485 136.943192,41.312485 143.083206,41.312485 
	C143.216919,42.874485 143.361938,44.568363 143.563828,46.926456 
	C150.074417,41.448345 156.932068,38.670063 164.919586,38.968956 
	C176.019028,39.384300 182.573257,45.821758 182.676956,56.923637 
	C182.796677,69.742104 182.772125,82.563499 182.594131,95.380623 
	C182.577194,96.599350 181.023544,97.796730 179.710052,99.004509 
z"/>
<path fill="#050505" opacity="1.000000" stroke="none" 
	d="
M845.512573,57.393555 
	C839.620605,54.244572 834.179993,54.531925 829.422119,58.619770 
	C824.273132,63.043510 823.828613,69.017838 825.473083,75.130669 
	C826.961731,80.664330 831.002380,84.404823 836.549683,84.333694 
	C840.987366,84.276779 845.396667,82.005028 851.132019,80.333481 
	C853.404724,82.922661 856.903992,86.909271 860.462769,90.963623 
	C850.997009,103.545143 828.388794,104.792099 815.365417,92.979988 
	C802.762512,81.549118 802.628601,58.853153 815.095581,47.236084 
	C827.857605,35.344040 850.368347,36.324711 860.856201,49.439529 
	C857.226990,53.141739 853.574219,56.867908 849.716309,60.803410 
	C848.284241,59.627659 847.058960,58.621639 845.512573,57.393555 
z"/>
<path fill="#050505" opacity="1.000000" stroke="none" 
	d="
M371.889893,59.442020 
	C364.831055,53.863609 357.520081,53.993076 352.391388,59.484943 
	C347.340546,64.893463 347.367584,75.238220 352.446472,80.565063 
	C358.057770,86.450294 365.199005,86.075645 373.501678,79.244560 
	C375.361786,80.993271 377.291595,82.744781 379.148346,84.570534 
	C381.038239,86.428833 382.856293,88.360176 384.700470,90.254089 
	C378.324188,99.655067 364.392517,103.519020 351.106873,99.588585 
	C338.376129,95.822319 330.211487,84.968094 329.867218,71.352287 
	C329.496765,56.700050 336.842621,45.322903 349.488007,40.963737 
	C363.129242,36.261280 377.333344,39.698174 384.657135,49.341846 
	C381.296478,52.818985 377.997162,56.320248 374.558105,59.678436 
	C374.135864,60.090778 372.966492,59.738064 371.889893,59.442020 
z"/>
<path fill="#040404" opacity="1.000000" stroke="none" 
	d="
M491.761169,64.999893 
	C491.761169,49.522808 491.761169,34.545723 491.761169,19.282772 
	C497.716766,19.282772 503.477203,19.282772 509.570435,19.282772 
	C509.570435,45.628723 509.570435,72.011360 509.570435,98.699829 
	C503.854797,98.699829 498.112793,98.699829 491.761169,98.699829 
	C491.761169,87.659927 491.761169,76.579910 491.761169,64.999893 
z"/>
<path fill="#050505" opacity="1.000000" stroke="none" 
	d="
M963.917969,79.223862 
	C958.111267,77.866913 952.239319,76.737961 946.512695,75.100914 
	C937.342163,72.479347 933.088867,67.443985 932.820740,59.567783 
	C932.517944,50.674873 936.988708,44.036385 945.762024,40.994804 
	C958.436829,36.600658 970.086365,39.426849 981.553284,46.555588 
	C979.293457,50.610802 977.142517,54.470692 975.185120,57.983192 
	C969.998108,56.200832 965.126160,54.502811 960.232544,52.870003 
	C959.460388,52.612366 958.451477,52.325432 957.789307,52.608055 
	C955.242737,53.694908 950.981995,54.661900 950.667908,56.305534 
	C949.917786,60.231579 954.247559,60.157215 956.931519,60.936268 
	C961.201111,62.175575 965.548584,63.146187 969.694336,64.844254 
	C968.922424,70.069077 969.101929,75.005684 964.233154,77.819077 
	C963.951538,77.981812 964.015076,78.741821 963.917969,79.223862 
z"/>
<path fill="#040404" opacity="1.000000" stroke="none" 
	d="
M107.920677,40.994888 
	C109.376350,41.878246 111.170677,42.753990 111.178635,43.645668 
	C111.341850,61.941948 111.301315,80.240044 111.301315,98.770645 
	C105.258240,98.770645 99.496239,98.770645 93.450157,98.770645 
	C93.450157,79.612419 93.450157,60.554340 93.450157,40.994694 
	C98.189529,40.994694 102.808510,40.994694 107.920677,40.994888 
z"/>
<path fill="#050505" opacity="1.000000" stroke="none" 
	d="
M777.793152,84.995163 
	C777.793152,70.192253 777.793152,55.888039 777.793152,41.289696 
	C783.755188,41.289696 789.510803,41.289696 795.600647,41.289696 
	C795.600647,60.292953 795.600647,79.338219 795.600647,98.695038 
	C789.904114,98.695038 784.165344,98.695038 777.793152,98.695038 
	C777.793152,94.334175 777.793152,89.914017 777.793152,84.995163 
z"/>
<path fill="#040404" opacity="1.000000" stroke="none" 
	d="
M393.751465,63.999939 
	C393.751434,56.188091 393.751434,48.876236 393.751434,41.280346 
	C399.705444,41.280346 405.464447,41.280346 411.553894,41.280346 
	C411.553894,60.294056 411.553894,79.342194 411.553894,98.698135 
	C405.831573,98.698135 400.092865,98.698135 393.751465,98.698135 
	C393.751465,87.324249 393.751465,75.912094 393.751465,63.999939 
z"/>
<path fill="#050505" opacity="1.000000" stroke="none" 
	d="
M964.079651,79.539268 
	C964.015076,78.741821 963.951538,77.981812 964.233154,77.819077 
	C969.101929,75.005684 968.922424,70.069077 969.832947,65.196068 
	C973.405396,66.630989 976.670410,68.327919 979.991089,70.821320 
	C979.716492,75.673752 979.078857,79.737495 979.181335,83.782494 
	C979.235229,85.912163 980.582214,88.009094 981.345276,90.120804 
	C977.876343,96.892036 971.613586,99.214172 964.726379,100.352356 
	C952.383972,102.392105 941.104004,99.779251 930.452576,92.276001 
	C933.009033,87.935150 935.413391,83.852562 938.000549,79.459648 
	C945.019348,83.877731 952.050049,87.624649 960.340515,86.850563 
	C962.233582,86.673813 964.246643,85.341965 965.665833,83.980324 
	C966.105591,83.558426 964.766174,81.282036 964.079651,79.539268 
z"/>
<path fill="#080808" opacity="1.000000" stroke="none" 
	d="
M795.185059,17.045244 
	C798.138611,22.935301 797.690491,27.708061 794.130920,31.118031 
	C790.766907,34.340683 785.752075,34.972988 781.657776,32.690697 
	C777.711975,30.491205 775.053589,25.509584 776.854431,21.212160 
	C778.130676,18.166538 780.880188,15.009817 783.796204,13.557457 
	C787.769287,11.578636 791.919067,13.191740 795.185059,17.045244 
z"/>
<path fill="#070707" opacity="1.000000" stroke="none" 
	d="
M408.869659,32.085293 
	C402.827545,34.913982 398.742371,34.536201 395.312653,30.871122 
	C392.000366,27.331511 391.375488,23.128546 393.413971,18.839476 
	C395.472412,14.508316 399.177795,12.486577 404.023834,12.993367 
	C408.236267,13.433894 411.201965,15.827155 412.546539,19.723272 
	C414.155518,24.385628 413.117462,28.595646 408.869659,32.085293 
z"/>
<path fill="#080808" opacity="1.000000" stroke="none" 
	d="
M98.143921,13.773506 
	C104.845154,12.214649 109.268806,13.920364 111.633499,18.689920 
	C113.840790,23.141998 112.600220,28.770493 108.746529,31.788181 
	C104.911743,34.791077 99.683151,34.793293 95.802109,31.819725 
	C89.816383,27.233595 90.646324,16.952068 98.143921,13.773506 
z"/>
<path fill="#0E0E0E" opacity="1.000000" stroke="none" 
	d="
M981.625122,89.900528 
	C980.582214,88.009094 979.235229,85.912163 979.181335,83.782494 
	C979.078857,79.737495 979.716492,75.673752 980.089966,71.136475 
	C984.952942,76.603004 984.739624,83.019569 981.625122,89.900528 
z"/>
<path fill="#F7F7F7" opacity="1.000000" stroke="none" 
	d="
M724.491333,64.943947 
	C727.346863,57.691322 732.292908,54.343220 738.162537,55.395370 
	C744.719666,56.570763 748.763489,61.531029 749.154541,68.878716 
	C749.562378,76.541756 746.013062,82.358292 739.837952,84.146500 
	C734.313293,85.746346 728.343628,83.960419 726.302795,78.779442 
	C724.686951,74.677422 724.933167,69.841904 724.491333,64.943947 
z"/>
<path fill="#F5F5F5" opacity="1.000000" stroke="none" 
	d="
M217.483002,88.046700 
	C212.996811,87.104790 210.158112,84.993187 210.994522,80.430801 
	C211.758591,76.263031 215.148285,74.916389 218.879501,75.053749 
	C221.793289,75.161018 224.919128,75.527107 227.522385,76.716072 
	C232.027649,78.773743 232.067780,84.352844 227.529404,86.358109 
	C224.633347,87.637718 221.137039,87.558884 217.483002,88.046700 
z"/>
<path fill="#F5F5F5" opacity="1.000000" stroke="none" 
	d="
M447.339233,88.136162 
	C442.626740,87.496490 439.359100,85.606903 439.970734,80.750084 
	C440.533813,76.279411 444.144043,74.935898 448.077881,75.041206 
	C450.835449,75.115036 453.803009,75.452316 456.235840,76.603661 
	C457.773468,77.331337 459.332336,79.762070 459.356384,81.450645 
	C459.380646,83.153740 457.906433,85.720482 456.399689,86.415871 
	C453.803650,87.614014 450.673431,87.654808 447.339233,88.136162 
z"/>
<path fill="#F7F7F7" opacity="1.000000" stroke="none" 
	d="
M900.836365,53.916588 
	C905.504578,55.629025 907.797607,58.798328 908.562622,63.645065 
	C900.713318,63.645065 893.024719,63.645065 885.341675,63.645065 
	C885.953308,55.841282 891.898376,51.931671 900.836365,53.916588 
z"/>
</svg>